<svg width="203" height="54" viewBox="0 0 203 54" fill="none" xmlns="http://www.w3.org/2000/svg">
<path d="M0 0.776611H13.8123C26.5196 0.776611 33.8289 3.30109 33.8289 13.6231C33.8289 21.1965 28.8042 24.3185 23.4137 24.692V26.477C31.3874 26.6264 37.6664 29.8903 37.6664 39.2488C37.6664 49.7949 29.7598 53.1335 17.1347 53.1335H0V0.776611ZM13.8347 23.1683C22.3311 23.1683 27.5797 21.9135 27.5797 14.5194C27.5797 6.46043 22.3311 5.94508 13.8347 5.94508H5.85342V23.1683H13.8347ZM17.1123 47.6289C25.9447 47.6289 31.3203 46.1575 31.3203 37.9866C31.3203 30.4057 25.9447 28.3442 17.1123 28.3442H5.85342V47.6364H17.1123V47.6289Z" fill="black"/>
<path d="M43.042 20.6365C43.042 17.1485 44.6696 15.4456 48.1413 15.5875L68.5238 16.2523V21.4431L49.2388 20.7784V53.1261H43.042V20.6365V20.6365Z" fill="black"/>
<path d="M84.4489 10.3144C87.4129 10.3144 89.7871 8.08865 89.7871 5.12351C89.7871 2.15836 87.4129 0.00732422 84.4489 0.00732422C81.4848 0.00732422 79.1106 2.30774 79.1106 5.12351C79.1106 8.08865 81.4102 10.3144 84.4489 10.3144Z" fill="black"/>
<path d="M88.1523 47.965V19.9941C88.1523 17.1783 86.8457 15.2438 83.4263 15.5426L75.0642 16.282V21.4729L82.6423 20.8082V47.965H71.9658V53.1335H98.4779V47.965H88.1448H88.1523Z" fill="black"/>
<path d="M149.441 47.965V19.9941C149.441 17.1783 148.097 15.2438 144.596 15.5426L136.017 16.282V21.4729L143.595 20.8082V47.965H133.262V53.1335H159.774V47.965H149.441V47.965Z" fill="black"/>
<path d="M145.559 10.3144C148.523 10.3144 150.897 8.08865 150.897 5.12351C150.897 2.15836 148.523 0.00732422 145.559 0.00732422C142.595 0.00732422 140.221 2.30774 140.221 5.12351C140.221 8.08865 142.52 10.3144 145.559 10.3144Z" fill="black"/>
<path d="M175.707 31.877L190.512 30.4579C190.139 23.6537 186.473 20.2853 180.045 20.2853C174.662 20.2853 169.652 22.6753 169.652 29.711H163.366C163.366 21.9434 169.249 14.9973 179.881 14.9973C190.512 14.9973 196.62 21.9359 196.62 31.9741V47.9649H202.13V53.1334H195.537C192.685 53.1334 191.117 51.5799 191.117 48.8537V46.6878L192.088 42.7965H190.296C188.877 48.4803 184.913 53.7907 175.939 53.7907C165.173 53.7907 163.53 46.6131 163.53 42.7218C163.53 36.8139 167.047 32.7732 175.715 31.877H175.707ZM176.782 48.5923C185.167 48.5923 190.505 42.804 190.505 35.1633L176.857 36.5749C172.183 37.023 169.809 38.4272 169.809 42.0645C169.809 46.2919 172.482 48.5923 176.782 48.5923Z" fill="black"/>
<path d="M125.244 16.2747L114.948 47.9651H110.894L100.538 16.2747H94.6177L106.772 53.1336H119.084L131.09 16.2747H125.244Z" fill="black"/>
</svg>
